<?xml version="1.0" encoding="UTF-8"?><svg id="Layer_1" xmlns="http://www.w3.org/2000/svg" viewBox="0 0 1757.4 347.9"><defs><style>.cls-1{fill:#fff;}</style></defs><path class="cls-1" d="M395.8,84.8c48.8,0,74.1,22.2,74.1,71.5v30.5c0,49.3-25,71-74.1,71h-55.6c-5.5,0-10-4.5-10-10V94.8c0-5.5,4.5-10,10-10h55.6ZM362.7,220.4c0,5.5,4.5,10,10,10h23.1c28.4,0,41.3-13.7,41.3-43.6v-30.5c0-30-12.7-44.2-41.3-44.2h-23.1c-5.5,0-10,4.5-10,10v98.3Z"/><path class="cls-1" d="M529.8,130.2v7.8c0,1.8,1.5,3.3,3.3,3.3h0c1.1,0,2.2-.5,2.8-1.5,6.5-9.9,16-15.6,30.3-15.6,22.5,0,35.9,13.2,35.9,47.3v4.1c0,1.9-1.5,3.4-3.4,3.4h-22.7c-1.9,0-3.4-1.5-3.4-3.4h0c0-15-6.2-24-21.4-24s-21.4,9-21.4,24v72.1c0,5.5-4.5,10-10,10h-11.8c-5.5,0-10-4.5-10-10v-110.9c0-5.5,4.5-10,10-10h18.4c1.8,0,3.3,1.5,3.3,3.3Z"/><path class="cls-1" d="M683.4,124.3c35.6,0,61.7,19.6,61.7,59.4v7.3c0,5.5-4.5,10-10,10h-84c-1,0-1.8.8-1.8,1.8h0c0,22.7,11.6,33.6,31,33.6h3.1c15.6,0,24.7-5.5,29-14.8,1.6-3.5,5.2-5.8,9.1-5.8h9.5c7,0,11.9,7.1,9.3,13.6-7.6,19.6-26.9,31-56.9,31h-3.1c-35.4,0-61.7-19.4-61.7-58.9v-17.8c0-39.8,26.3-59.4,61.7-59.4h3.1ZM651.3,178h61.2c1.1,0,1.9-.9,1.8-2-1.5-18.1-13.7-27.7-31.1-27.7h-3.1c-18.2,0-29.2,9.4-30.6,27.7,0,1.1.7,2,1.8,2Z"/><path class="cls-1" d="M827.8,124.3c37.7,0,56,17.6,56,47.3v82.8c0,1.9-1.5,3.4-3.4,3.4h-24.6c-1.9,0-3.4-1.5-3.4-3.4v-8.4c0-1.9-1.5-3.4-3.4-3.4h0c-1,0-2,.5-2.7,1.3-9.4,11.5-21,16.5-38.2,16.5s-42.6-11.9-42.6-39.8,16-39.5,52.7-39.5h30.9c1.9,0,3.4-1.5,3.4-3.4v-6.1c0-16.3-9.3-23-24.5-23h-3.1c-12.5,0-23,5.8-24.4,19.6-.2,1.8-1.7,3.1-3.4,3.1h-24.2c-2,0-3.5-1.6-3.4-3.6,1.5-27.3,20.8-43.4,55.4-43.4h3.1ZM796.5,218.3c0,11.1,7.7,17.3,22.5,17.3s33.3-8.3,33.3-30.7v-.4c0-1.9-1.5-3.4-3.4-3.4h-28.3c-17,0-24,6.2-24,17.3Z"/><path class="cls-1" d="M944.2,136.9v3c0,1.5,1.2,2.8,2.8,2.8h.3c1,0,1.8-.5,2.4-1.3,6.4-10.1,18.2-17,33.3-17h2.6c14.7,0,25.3,5.5,32.5,17s1.4,1.3,2.4,1.3h2.9c.9,0,1.8-.5,2.3-1.3,7.3-11.3,19.6-17.1,34.8-17.1h2.6c26.1,0,41.6,14.7,41.6,51.4v72.1c0,5.5-4.5,10-10,10h-11.5c-5.5,0-10-4.5-10-10v-69.5c0-18.1-7.2-27.6-23-27.6h-2.6c-15.8,0-23,9.6-23,27.6v69.5c0,5.5-4.5,10-10,10h-11.8c-5.5,0-10-4.5-10-10v-69.5c0-18.1-7.5-27.6-23-27.6h-2.6c-15.5,0-23,9.6-23,27.6v69.5c0,5.5-4.5,10-10,10h-11.8c-5.5,0-10-4.5-10-10v-110.9c0-5.5,4.5-10,10-10h11.8c5.5,0,10,4.5,10,10Z"/><path class="cls-1" d="M1154.4,91.7l41.3,128.7c.7,2.1,2.7,3.6,4.9,3.6h0c2.2,0,4.2-1.4,4.9-3.6l40.8-128.6c1.3-4.2,5.2-7,9.5-7h9.8c6.8,0,11.6,6.6,9.5,13l-48.4,153c-1.3,4.2-5.2,7-9.5,7h-35.5c-4.4,0-8.2-2.8-9.5-7l-48.9-153c-2.1-6.5,2.8-13,9.5-13h12.1c4.3,0,8.2,2.8,9.5,6.9Z"/><path class="cls-1" d="M1345,124.3c37.7,0,56,17.6,56,47.3v76.2c0,5.5-4.5,10-10,10h-18.1c-1.9,0-3.4-1.5-3.4-3.4v-8.4c0-1.9-1.5-3.4-3.4-3.4h0c-1,0-2,.5-2.7,1.3-9.4,11.5-21,16.5-38.2,16.5s-42.6-11.9-42.6-39.8,16-39.5,52.7-39.5h30.9c1.9,0,3.4-1.5,3.4-3.4v-6.1c0-16.3-9.3-23-24.5-23h-3.1c-11.2,0-20.8,4.7-23.6,15.5-1.2,4.3-5.2,7.2-9.7,7.2h-11.2c-6.3,0-11.1-5.8-9.8-12,4.7-22.2,23.4-35,54.3-35h3.1ZM1313.8,218.3c0,11.1,7.7,17.3,22.5,17.3s33.3-8.3,33.3-30.7v-.4c0-1.9-1.5-3.4-3.4-3.4h-28.3c-17,0-24,6.2-24,17.3Z"/><path class="cls-1" d="M1515.4,254.5v-9.3c0-1.8-1.5-3.2-3.2-3.2h-.2c-1.1,0-2.1.5-2.7,1.4-7.6,10.7-20.1,16.9-35.7,16.9h-3.1c-25.6,0-43.9-16-43.9-51.6v-71.9c0-5.5,4.5-10,10-10h11.8c5.5,0,10,4.5,10,10v66.2c0,20.1,10.1,30,26.9,30h3.1c17,0,27.1-9.8,27.1-30v-66.2c0-5.5,4.5-10,10-10h11.8c5.5,0,10,4.5,10,10v110.9c0,5.5-4.5,10-10,10h-18.5c-1.8,0-3.2-1.5-3.2-3.2Z"/><path class="cls-1" d="M1732.4,203.8h-8.4c-5.5,0-10,4.5-10,10v3.2c0,11.9-5.2,18.3-15.8,18.3h-3.1c-10.6,0-16.3-6.5-16.3-18.3v-55.6c0-5.5,4.5-10,10-10h37.1c5.5,0,10-4.5,10-10v-4.5c0-5.5-4.5-10-10-10h-37.1c-5.5,0-10-4.5-10-10v-16.9c0-5.5-4.5-10-10-10h-11.5c-5.5,0-10,4.5-10,10v25.1c0,.9-.6,1.6-1.4,1.8h-25.3c-5.5,0-10-4.5-10-10v-40.1c0-5.5-4.5-10-10-10h-11.8c-5.5,0-10,4.5-10,10v171.1c0,5.5,4.5,10,10,10h11.8c5.5,0,10-4.5,10-10v-86.3c0-5.5,4.5-10,10-10h25.3c.8.2,1.4.9,1.4,1.8v63.8c0,31,20.9,43.4,47.5,43.4h3.1c26.1,0,44.4-12.4,44.4-43.4v-3.2c0-5.5-4.5-10-10-10Z"/><circle class="cls-1" cx="255.8" cy="170.4" r="30.8"/><circle class="cls-1" cx="164.4" cy="80.1" r="30.8"/><path class="cls-1" d="M96.4,149.5c15.7,11.2,26.7,12.6,45.5,1.3,6.6-5.3,13.6-9.7,22.4-9.7,17,0,30.8,13.8,30.8,30.8s-3.7,16.8-9.7,22.4c-10.1,11.5-11.6,35.4,0,46.9,6,5.6,9.7,13.6,9.7,22.4,0,17-13.8,30.8-30.8,30.8s-30.8-13.8-30.8-30.8,3.7-16.8,9.7-22.4c12.2-11,12.5-31.6,0-46.9-.5-.4-.9-.9-1.4-1.4-15.8-13.8-32.6-13.3-46.9,0-5.6,6-13.6,9.7-22.4,9.7-17,0-30.8-13.8-30.8-30.8s3.4-18.7,10.3-24.3c9.6-8.5,15.7-30.2,1.1-43.6-6.9-5.6-11.3-14.2-11.3-23.8,0-17,13.8-30.8,30.8-30.8s30.8,13.8,30.8,30.8-3.5,16.3-9.1,21.8c-11.5,13-14.6,31.2,2.1,47.6Z"/></svg>