<?xml version="1.0" encoding="UTF-8"?><svg id="Layer_1" xmlns="http://www.w3.org/2000/svg" viewBox="0 0 1757.4 347.9"><defs><style>.cls-1{fill:#fff;}</style></defs><path class="cls-1" d="M399.7,91.1c48,0,72.9,21.9,72.9,70.4v30c0,48.5-24.7,69.9-72.9,69.9h-54.7c-5.4,0-9.8-4.4-9.8-9.8V101c0-5.4,4.4-9.8,9.8-9.8h54.7ZM367.2,224.6c0,5.4,4.4,9.8,9.8,9.8h22.7c28,0,40.7-13.5,40.7-43v-30c0-29.5-12.5-43.5-40.7-43.5h-22.7c-5.4,0-9.8,4.4-9.8,9.8v96.7Z"/><path class="cls-1" d="M531.6,135.8v7.7c0,1.8,1.5,3.3,3.3,3.3h0c1.1,0,2.1-.5,2.7-1.5,6.4-9.8,15.8-15.3,29.8-15.3,22.1,0,35.3,13,35.3,46.5v4.1c0,1.8-1.5,3.3-3.3,3.3h-22.4c-1.8,0-3.3-1.5-3.3-3.3h0c0-14.7-6.1-23.6-21.1-23.6s-21.1,8.9-21.1,23.6v71c0,5.4-4.4,9.8-9.8,9.8h-11.6c-5.4,0-9.8-4.4-9.8-9.8v-109.2c0-5.4,4.4-9.8,9.8-9.8h18.1c1.8,0,3.3,1.5,3.3,3.3Z"/><path class="cls-1" d="M682.9,130c35.1,0,60.7,19.3,60.7,58.5v7.2c0,5.4-4.4,9.8-9.8,9.8h-82.7c-1,0-1.8.8-1.8,1.8h0c0,22.4,11.4,33,30.5,33h3c15.4,0,24.3-5.4,28.5-14.6,1.6-3.5,5.1-5.7,8.9-5.7h9.4c6.9,0,11.7,7,9.2,13.4-7.5,19.3-26.5,30.5-56,30.5h-3c-34.8,0-60.7-19.1-60.7-57.9v-17.5c0-39.1,25.9-58.5,60.7-58.5h3ZM651.2,182.9h60.3c1,0,1.9-.9,1.8-1.9-1.5-17.8-13.5-27.3-30.6-27.3h-3c-17.9,0-28.7,9.3-30.1,27.3,0,1,.7,1.9,1.8,1.9Z"/><path class="cls-1" d="M824.9,130c37.1,0,55.2,17.3,55.2,46.5v81.5c0,1.9-1.5,3.4-3.4,3.4h-24.2c-1.9,0-3.4-1.5-3.4-3.4v-8.2c0-1.9-1.5-3.4-3.4-3.4h0c-1,0-2,.5-2.7,1.3-9.2,11.3-20.7,16.3-37.6,16.3s-41.9-11.7-41.9-39.1,15.8-38.9,51.8-38.9h30.4c1.9,0,3.4-1.5,3.4-3.4v-6c0-16-9.1-22.6-24.1-22.6h-3c-12.3,0-22.7,5.8-24,19.3-.2,1.7-1.6,3-3.4,3h-23.8c-1.9,0-3.5-1.6-3.4-3.5,1.5-26.8,20.4-42.7,54.5-42.7h3ZM794.2,222.5c0,10.9,7.6,17,22.1,17s32.8-8.1,32.8-30.2v-.4c0-1.9-1.5-3.4-3.4-3.4h-27.9c-16.8,0-23.6,6.1-23.6,17Z"/><path class="cls-1" d="M939.6,142.4v2.9c0,1.5,1.2,2.7,2.7,2.7h.3c1,0,1.8-.5,2.3-1.3,6.3-10,17.9-16.7,32.8-16.7h2.5c14.4,0,24.9,5.4,32,16.7.5.8,1.4,1.3,2.3,1.3h2.8c.9,0,1.8-.5,2.3-1.3,7.2-11.1,19.3-16.8,34.3-16.8h2.5c25.7,0,40.9,14.5,40.9,50.6v71c0,5.4-4.4,9.8-9.8,9.8h-11.3c-5.4,0-9.8-4.4-9.8-9.8v-68.4c0-17.8-7.1-27.2-22.6-27.2h-2.5c-15.5,0-22.6,9.4-22.6,27.2v68.4c0,5.4-4.4,9.8-9.8,9.8h-11.6c-5.4,0-9.8-4.4-9.8-9.8v-68.4c0-17.8-7.4-27.2-22.6-27.2h-2.5c-15.2,0-22.6,9.4-22.6,27.2v68.4c0,5.4-4.4,9.8-9.8,9.8h-11.6c-5.4,0-9.8-4.4-9.8-9.8v-109.2c0-5.4,4.4-9.8,9.8-9.8h11.6c5.4,0,9.8,4.4,9.8,9.8Z"/><path class="cls-1" d="M1146.4,98l40.7,126.7c.7,2.1,2.6,3.5,4.8,3.5h0c2.2,0,4.1-1.4,4.8-3.5l40.2-126.6c1.3-4.1,5.1-6.9,9.4-6.9h9.6c6.7,0,11.4,6.5,9.4,12.8l-47.7,150.6c-1.3,4.1-5.1,6.9-9.4,6.9h-34.9c-4.3,0-8.1-2.8-9.4-6.8l-48.1-150.6c-2-6.4,2.7-12.8,9.4-12.8h11.9c4.3,0,8.1,2.8,9.4,6.8Z"/><path class="cls-1" d="M1334,130c37.1,0,55.2,17.3,55.2,46.5v75c0,5.4-4.4,9.8-9.8,9.8h-17.8c-1.9,0-3.4-1.5-3.4-3.4v-8.2c0-1.9-1.5-3.4-3.4-3.4h0c-1,0-2,.5-2.7,1.3-9.2,11.3-20.7,16.3-37.6,16.3s-41.9-11.7-41.9-39.1,15.8-38.9,51.8-38.9h30.4c1.9,0,3.4-1.5,3.4-3.4v-6c0-16-9.1-22.6-24.1-22.6h-3c-11,0-20.4,4.6-23.3,15.2-1.1,4.3-5.1,7.1-9.5,7.1h-11c-6.2,0-10.9-5.7-9.7-11.8,4.7-21.8,23-34.5,53.5-34.5h3ZM1303.3,222.5c0,10.9,7.6,17,22.1,17s32.8-8.1,32.8-30.2v-.4c0-1.9-1.5-3.4-3.4-3.4h-27.9c-16.8,0-23.6,6.1-23.6,17Z"/><path class="cls-1" d="M1501.8,258.2v-9.1c0-1.8-1.4-3.2-3.2-3.2h-.2c-1.1,0-2,.5-2.6,1.4-7.5,10.6-19.8,16.6-35.1,16.6h-3.1c-25.2,0-43.2-15.8-43.2-50.8v-70.7c0-5.4,4.4-9.8,9.8-9.8h11.6c5.4,0,9.8,4.4,9.8,9.8v65.1c0,19.8,9.9,29.5,26.4,29.5h3c16.8,0,26.7-9.7,26.7-29.5v-65.1c0-5.4,4.4-9.8,9.8-9.8h11.6c5.4,0,9.8,4.4,9.8,9.8v109.2c0,5.4-4.4,9.8-9.8,9.8h-18.2c-1.8,0-3.2-1.4-3.2-3.2Z"/><path class="cls-1" d="M1715.3,208.3h-8.3c-5.4,0-9.8,4.4-9.8,9.8v3.1c0,11.7-5.1,18-15.5,18h-3c-10.4,0-16-6.4-16-18v-54.7c0-5.4,4.4-9.8,9.8-9.8h36.5c5.4,0,9.8-4.4,9.8-9.8v-4.5c0-5.4-4.4-9.8-9.8-9.8h-36.5c-5.4,0-9.8-4.4-9.8-9.8v-16.7c0-5.4-4.4-9.8-9.8-9.8h-11.3c-5.4,0-9.8,4.4-9.8,9.8v24.7c0,.8-.6,1.5-1.4,1.7h-24.9c-5.4,0-9.8-4.4-9.8-9.8v-39.5c0-5.4-4.4-9.8-9.8-9.8h-11.6c-5.4,0-9.8,4.4-9.8,9.8v168.4c0,5.4,4.4,9.8,9.8,9.8h11.6c5.4,0,9.8-4.4,9.8-9.8v-85c0-5.4,4.4-9.8,9.8-9.8h24.9c.8.2,1.4.9,1.4,1.7v62.8c0,30.5,20.6,42.7,46.8,42.7h3c25.7,0,43.7-12.2,43.7-42.7v-3.1c0-5.4-4.4-9.8-9.8-9.8Z"/><circle class="cls-1" cx="245.1" cy="176.2" r="30.3"/><circle class="cls-1" cx="155.1" cy="87.3" r="30.3"/><path class="cls-1" d="M88.2,155.6c15.4,11.1,26.3,12.4,44.8,1.3,6.5-5.2,13.4-9.6,22.1-9.6,16.7,0,30.3,13.6,30.3,30.3s-3.7,16.6-9.6,22.1c-10,11.4-11.4,34.9,0,46.2,5.9,5.5,9.6,13.4,9.6,22.1,0,16.7-13.6,30.3-30.3,30.3s-30.3-13.6-30.3-30.3,3.7-16.6,9.6-22.1c12-10.8,12.3-31.2,0-46.2-.5-.4-.9-.9-1.4-1.4-15.6-13.6-32.1-13.1-46.2,0-5.5,5.9-13.4,9.6-22.1,9.6-16.7,0-30.3-13.6-30.3-30.3s3.3-18.4,10.1-23.9c9.4-8.4,15.4-29.7,1-43-6.8-5.6-11.1-14-11.1-23.5,0-16.7,13.6-30.3,30.3-30.3s30.3,13.6,30.3,30.3-3.4,16-8.9,21.5c-11.3,12.8-14.4,30.7,2.1,46.9Z"/></svg>