<?xml version="1.0" encoding="UTF-8"?><svg id="Layer_1" xmlns="http://www.w3.org/2000/svg" viewBox="0 0 500 500"><defs><style>.cls-1{fill:#fff;}</style></defs><path class="cls-1" d="M127.9,324.8c104.9-2.7,102.4-127.4,18.2-155.7-23.8-3.5-35.7,17.7-63.5,18.8-30,.5-46.6-17.5-46.6-41.7,0-28.8,36.8-39.4,36.8-39.4,40.2-10.4,39.4,31.2,94.1,10.7,55-26.3,24.9-56.8,45.6-87.3,20.1-25.9,51.3-18.9,58.9-17.5,23.1,4.6,29.7,38.8,1.3,66.6-74.6,59.6-35.1,107-14.6,126.4,10.4,12.9,32,19.4,51.6,19.8,24.9-1.2,29.6-10.9,44.6-14.9,29.9-6.5,47.2,4.7,49.1,21.4,3.8,41.5,10.5,61,25.3,70.8,27.7,15.5,42.1,33.6,31.7,56.5-7.6,21.1-21.6,27.3-45.6,26.8-18.4-3.6-27.8-7.2-29.8-30.5-2.9-70.2-59.5-95.4-118.9-73.6-46.6,24.3-52.7,94.7,4,133.6,24.3,19.3,21.7,58.2-3,69.7-12.8,6-31.3,7.1-48.8-15.2-19.1-35,2.6-61.4-40.4-84.9-33.4-20.9-60.2-12.3-86.3,0-20.6,7.9-42.5-3.2-52.2-32.2-4.5-23.6,16.5-41.8,37.3-44.1,28-2,30,13.6,51.2,15.9Z"/></svg>