<?xml version="1.0" encoding="UTF-8"?><svg id="Layer_1" xmlns="http://www.w3.org/2000/svg" viewBox="0 0 1757.4 347.9"><defs><style>.cls-1{fill:#fff;}</style></defs><path class="cls-1" d="M464,92.4c46.4,0,70.4,21.1,70.4,68v28.9c0,46.9-23.8,67.5-70.4,67.5h-60.6c-.9,0-1.7-.8-1.7-1.7V94.1c0-.9.8-1.7,1.7-1.7h60.6ZM432.6,229.1c0,.9.8,1.7,1.7,1.7h29.7c27,0,39.3-13,39.3-41.5v-28.9c0-28.5-12-42-39.3-42h-29.7c-.9,0-1.7.8-1.7,1.7v108.9Z"/><path class="cls-1" d="M591.3,134.1v10.3c0,.9.8,1.7,1.7,1.7h2.2c.6,0,1.1-.3,1.5-.8,6.1-9.8,15.3-15.4,29.2-15.4,21.3,0,34.1,12.5,34.1,44.9v5.4c0,.9-.8,1.7-1.7,1.7h-24.5c-.9,0-1.7-.8-1.7-1.7v-1.5c0-14.2-5.9-22.8-20.4-22.8s-20.4,8.6-20.4,22.8v76.3c0,.9-.8,1.7-1.7,1.7h-26.7c-.9,0-1.7-.8-1.7-1.7v-120.9c0-.9.8-1.7,1.7-1.7h26.7c.9,0,1.7.8,1.7,1.7Z"/><path class="cls-1" d="M737.3,130c33.9,0,58.6,18.6,58.6,56.4v14.7c0,.9-.8,1.7-1.7,1.7h-87.6c-.9,0-1.7.8-1.7,1.7h0c0,21.6,11,31.9,29.4,31.9h2.9c17,0,25.9-6.8,29.1-18.3s.9-1.3,1.7-1.3h24.4c1,0,1.9.9,1.7,1.9-3.7,25.3-23.2,40.5-56.9,40.5h-2.9c-33.6,0-58.6-18.4-58.6-55.9v-16.9c0-37.8,25-56.4,58.6-56.4h2.9ZM706.7,181h58.2c1,0,1.8-.9,1.7-1.9-1.4-17.2-13-26.3-29.6-26.3h-2.9c-17.3,0-27.7,8.9-29.1,26.3,0,1,.7,1.9,1.7,1.9Z"/><path class="cls-1" d="M874.4,130c35.8,0,53.2,16.7,53.2,44.9v80.2c0,.9-.8,1.7-1.7,1.7h-26.5c-.9,0-1.7-.8-1.7-1.7v-11c0-.9-.8-1.7-1.7-1.7h-2.4c-.5,0-1,.2-1.3.7-9,11.3-20.2,16.3-36.8,16.3s-40.5-11.3-40.5-37.8,15.2-37.5,50-37.5h30.9c.9,0,1.7-.8,1.7-1.7v-7.4c0-15.5-8.8-21.8-23.3-21.8h-2.9c-12.3,0-22.5,5.9-23.3,20,0,.9-.8,1.6-1.7,1.6h-26c-1,0-1.7-.8-1.7-1.8.8-26.9,19.1-42.9,52.7-42.9h2.9ZM844.7,219.3c0,10.5,7.4,16.4,21.3,16.4s31.6-7.9,31.6-29.2v-2c0-.9-.8-1.7-1.7-1.7h-28.5c-16.2,0-22.8,5.9-22.8,16.4Z"/><path class="cls-1" d="M985.1,134.1v11.5c0,.9.8,1.7,1.7,1.7h1.7c.6,0,1.2-.3,1.5-.8,6-9.9,17.3-16.6,31.9-16.6h2.5c14.1,0,24.3,5.4,31.2,16.6.3.5.9.8,1.5.8h3.7c.6,0,1.1-.3,1.5-.8,6.9-11,18.7-16.6,33.4-16.6h2.5c24.8,0,39.5,14,39.5,48.8v76.3c0,.9-.8,1.7-1.7,1.7h-26.5c-.9,0-1.7-.8-1.7-1.7v-73.8c0-17.2-6.9-26.3-21.8-26.3h-2.5c-15,0-21.8,9.1-21.8,26.3v73.8c0,.9-.8,1.7-1.7,1.7h-26.7c-.9,0-1.7-.8-1.7-1.7v-73.8c0-17.2-7.1-26.3-21.8-26.3h-2.5c-14.7,0-21.8,9.1-21.8,26.3v73.8c0,.9-.8,1.7-1.7,1.7h-26.7c-.9,0-1.7-.8-1.7-1.7v-120.9c0-.9.8-1.7,1.7-1.7h26.7c.9,0,1.7.8,1.7,1.7Z"/><path class="cls-1" d="M1186.9,93.6l41.7,129.8c.2.7.9,1.2,1.6,1.2h4.6c.7,0,1.4-.5,1.6-1.2l41.2-129.8c.2-.7.9-1.2,1.6-1.2h25.6c1.2,0,2,1.1,1.6,2.2l-50.9,160.9c-.2.7-.9,1.2-1.6,1.2h-45.1c-.7,0-1.4-.5-1.6-1.2l-51.4-160.9c-.4-1.1.5-2.2,1.6-2.2h27.8c.7,0,1.4.5,1.6,1.2Z"/><path class="cls-1" d="M1369.7,130c35.8,0,53.2,16.7,53.2,44.9v80.2c0,.9-.8,1.7-1.7,1.7h-26.5c-.9,0-1.7-.8-1.7-1.7v-11c0-.9-.8-1.7-1.7-1.7h-2.4c-.5,0-1,.2-1.3.7-9,11.3-20.2,16.3-36.8,16.3s-40.5-11.3-40.5-37.8,15.2-37.5,50-37.5h30.9c.9,0,1.7-.8,1.7-1.7v-7.4c0-15.5-8.8-21.8-23.3-21.8h-2.9c-12.3,0-22.5,5.9-23.3,20,0,.9-.8,1.6-1.7,1.6h-26c-1,0-1.7-.8-1.7-1.8.8-26.9,19.1-42.9,52.7-42.9h2.9ZM1340.1,219.3c0,10.5,7.4,16.4,21.3,16.4s31.6-7.9,31.6-29.2v-2c0-.9-.8-1.7-1.7-1.7h-28.5c-16.2,0-22.8,5.9-22.8,16.4Z"/><path class="cls-1" d="M1531.7,255.1v-11.5c0-.9-.8-1.7-1.7-1.7h-2.3c-.6,0-1.1.3-1.4.8-7.2,10.6-19.2,16.7-34.3,16.7h-2.9c-24.3,0-41.7-15.2-41.7-49.1v-76.1c0-.9.8-1.7,1.7-1.7h26.7c.9,0,1.7.8,1.7,1.7v70.7c0,19.1,9.6,28.5,25.5,28.5h2.9c16.2,0,25.8-9.3,25.8-28.5v-70.7c0-.9.8-1.7,1.7-1.7h26.7c.9,0,1.7.8,1.7,1.7v120.9c0,.9-.8,1.7-1.7,1.7h-26.7c-.9,0-1.7-.8-1.7-1.7Z"/><path class="cls-1" d="M78,223.9c69.3-1.8,67.7-84.2,12-102.9-15.7-2.3-23.6,11.7-41.9,12.5-19.8.3-30.8-11.6-30.8-27.5,0-19,24.3-26.1,24.3-26.1,26.5-6.9,26.1,20.6,62.2,7,36.4-17.4,16.5-37.5,30.2-57.7,13.3-17.1,33.9-12.5,38.9-11.6,15.2,3,19.6,25.6.9,44-49.3,39.4-23.2,70.7-9.6,83.6,6.9,8.5,21.1,12.8,34.1,13.1,16.5-.8,19.5-7.2,29.5-9.8,19.7-4.3,31.2,3.1,32.4,14.2,2.5,27.4,6.9,40.3,16.7,46.8,18.3,10.2,27.8,22.2,21,37.4-5,13.9-14.3,18-30.2,17.7-12.1-2.4-18.4-4.8-19.7-20.2-1.9-46.4-39.3-63.1-78.6-48.7-30.8,16.1-34.8,62.6,2.6,88.3,16.1,12.8,14.3,38.5-2,46.1-8.4,3.9-20.7,4.7-32.3-10.1-12.6-23.1,1.7-40.6-26.7-56.1-22.1-13.8-39.8-8.1-57,0-13.6,5.2-28.1-2.1-34.5-21.3-2.9-15.6,10.9-27.6,24.7-29.2,18.5-1.3,19.8,9,33.8,10.5Z"/><circle class="cls-1" cx="273.8" cy="106.6" r="26.3"/><path class="cls-1" d="M1745.6,205.5h-23.6c-.9,0-1.7.8-1.7,1.7v10.8c0,11.3-4.9,17.4-15,17.4h-2.9c-10.1,0-15.5-6.1-15.5-17.4v-60.6c0-.9.8-1.7,1.7-1.7h50.8c.9,0,1.7-.8,1.7-1.7v-19.9c0-.9-.8-1.7-1.7-1.7h-50.8c-.9,0-1.7-.8-1.7-1.7v-31.6c0-.9-.8-1.7-1.7-1.7h-26.5c-.9,0-1.7.8-1.7,1.7v31.6c0,.8-.6,1.5-1.3,1.7h-33.5v-55.4c0-.9-.8-1.7-1.7-1.7h-26.7c-.9,0-1.7.8-1.7,1.7v178.1c0,.9.8,1.7,1.7,1.7h26.7c.9,0,1.7-.8,1.7-1.7v-99.3h33.5c.8.2,1.3.9,1.3,1.7v60.6c0,29.4,19.9,41.2,45.1,41.2h2.9c24.8,0,42.2-11.8,42.2-41.2v-10.8c0-.9-.8-1.7-1.7-1.7Z"/></svg>