<?xml version="1.0" encoding="UTF-8"?><svg id="Layer_1" xmlns="http://www.w3.org/2000/svg" viewBox="0 0 500 500"><defs><style>.cls-1{fill:#fff;}</style></defs><circle class="cls-1" cx="423.9" cy="254.8" r="55.9"/><circle class="cls-1" cx="257.9" cy="90.9" r="55.9"/><path class="cls-1" d="M134.5,216.9c28.5,20.4,48.5,22.9,82.7,2.4,11.9-9.6,24.7-17.7,40.8-17.7,30.9,0,55.9,25,55.9,55.9s-6.8,30.6-17.7,40.8c-18.4,20.9-21,64.3,0,85.2,10.9,10.2,17.7,24.7,17.7,40.8,0,30.9-25,55.9-55.9,55.9s-55.9-25-55.9-55.9,6.8-30.6,17.7-40.8c22.2-19.9,22.7-57.5,0-85.2-.9-.8-1.7-1.7-2.5-2.5-28.7-25.1-59.2-24.1-85.2,0-10.2,10.9-24.7,17.7-40.8,17.7-30.9,0-55.9-25-55.9-55.9s6.1-33.9,18.6-44.2c17.4-15.4,28.5-54.9,1.9-79.2-12.5-10.2-20.6-25.8-20.6-43.3,0-30.9,25-55.9,55.9-55.9s55.9,25,55.9,55.9-6.3,29.5-16.5,39.6c-20.9,23.6-26.5,56.6,3.9,86.4Z"/></svg>